<svg width="111" height="18" viewBox="0 0 111 18" fill="none" xmlns="http://www.w3.org/2000/svg">
<path d="M8.59216 17H6.88816V0.919983H8.59216V17ZM15.1922 2.47998H0.26416V0.919983H15.1922V2.47998Z" fill="#665A4E"/>
<path d="M17.4375 17H15.5655L22.8375 0.919983H25.2135L32.5095 17H30.5895L24.9495 4.63998L24.0615 2.55198H23.9175L23.0535 4.63998L17.4375 17ZM29.0775 12.272H18.8535V10.736H29.0775V12.272Z" fill="#665A4E"/>
<path d="M42.5612 17H33.8732V0.919983H42.3212C43.2972 0.919983 44.1372 1.07198 44.8412 1.37598C45.5612 1.67998 46.1132 2.13598 46.4972 2.74398C46.8972 3.33598 47.0972 4.05598 47.0972 4.90398C47.0972 5.81598 46.8332 6.59998 46.3052 7.25598C45.7772 7.89598 44.9612 8.30398 43.8572 8.47998V8.62398C45.1052 8.83198 46.0412 9.28798 46.6652 9.99198C47.2892 10.68 47.6012 11.536 47.6012 12.56C47.6012 13.488 47.3932 14.288 46.9772 14.96C46.5612 15.616 45.9772 16.12 45.2252 16.472C44.4732 16.824 43.5852 17 42.5612 17ZM35.5772 9.39198V15.44H42.4172C43.5532 15.44 44.4092 15.192 44.9852 14.696C45.5772 14.2 45.8732 13.432 45.8732 12.392C45.8732 11.352 45.5772 10.592 44.9852 10.112C44.3932 9.63198 43.5372 9.39198 42.4172 9.39198H35.5772ZM35.5772 2.47998V7.92798H42.0332C43.1372 7.92798 43.9692 7.70398 44.5292 7.25598C45.1052 6.80798 45.3932 6.12798 45.3932 5.21598C45.3932 4.27198 45.1292 3.58398 44.6012 3.15198C44.0732 2.70398 43.2652 2.47998 42.1772 2.47998H35.5772Z" fill="#665A4E"/>
<path d="M56.7791 17.24C55.2911 17.24 54.0031 16.976 52.9151 16.448C51.8431 15.904 51.0111 15.12 50.4191 14.096C49.8271 13.072 49.5311 11.824 49.5311 10.352V0.919983H51.2351V10.28C51.2351 11.496 51.4351 12.496 51.8351 13.28C52.2511 14.064 52.8671 14.64 53.6831 15.008C54.4991 15.376 55.5311 15.56 56.7791 15.56C58.0271 15.56 59.0591 15.376 59.8751 15.008C60.6911 14.64 61.2991 14.064 61.6991 13.28C62.1151 12.496 62.3231 11.496 62.3231 10.28V0.919983H64.0271V10.352C64.0271 11.824 63.7311 13.072 63.1391 14.096C62.5471 15.12 61.7071 15.904 60.6191 16.448C59.5471 16.976 58.2671 17.24 56.7791 17.24Z" fill="#665A4E"/>
<path d="M68.4879 17H66.7839V0.919983H74.6559C75.7759 0.919983 76.7599 1.10398 77.6079 1.47198C78.4559 1.83998 79.1119 2.36798 79.5759 3.05598C80.0559 3.74398 80.2959 4.58398 80.2959 5.57598C80.2959 6.48798 80.0879 7.27198 79.6719 7.92798C79.2559 8.58398 78.6799 9.09598 77.9439 9.46398C77.2079 9.81598 76.3359 10.008 75.3279 10.04V10.16C75.8559 10.304 76.2879 10.544 76.6239 10.88C76.9599 11.216 77.2639 11.616 77.5359 12.08L80.5599 17H78.5919L75.7359 12.344C75.4639 11.896 75.1679 11.536 74.8479 11.264C74.5439 10.976 74.1599 10.768 73.6959 10.64C73.2479 10.496 72.6639 10.424 71.9439 10.424H68.4879V17ZM68.4879 2.47998V9.05598H74.6319C75.8959 9.05598 76.8559 8.79998 77.5119 8.28798C78.1839 7.75998 78.5199 6.91998 78.5199 5.76798C78.5199 4.63198 78.1839 3.79998 77.5119 3.27198C76.8559 2.74398 75.8959 2.47998 74.6319 2.47998H68.4879Z" fill="#665A4E"/>
<path d="M84.2379 17H82.5339V0.919983H84.2379V17ZM94.7499 17H83.1099V15.44H94.7499V17ZM94.3899 9.67998H83.1099V8.14398H94.3899V9.67998ZM94.7499 2.47998H83.1099V0.919983H94.7499V2.47998Z" fill="#665A4E"/>
<path d="M104.287 17H102.583V0.919983H104.287V17ZM110.887 2.47998H95.9595V0.919983H110.887V2.47998Z" fill="#665A4E"/>
</svg>
