<svg width="115" height="17" viewBox="0 0 115 17" fill="none" xmlns="http://www.w3.org/2000/svg">
<path d="M9.23954 16.6847H6.65785V0.919983H9.23954V16.6847ZM15.5852 3.20234H0.288086V0.919983H15.5852V3.20234Z" fill="#665A4E"/>
<path d="M18.7985 16.6847H15.9032L23.1174 0.919983H26.7849L33.9991 16.6847H31.0555L25.9645 5.50822L25.0235 3.27292H24.8305L23.8895 5.50822L18.7985 16.6847ZM30.2593 12.5906H19.4741V10.3082H30.2593V12.5906Z" fill="#665A4E"/>
<path d="M44.4706 16.6847H35.0849V0.919983H44.1328C45.1784 0.919983 46.0631 1.069 46.7869 1.36704C47.5268 1.66508 48.0898 2.1043 48.4758 2.68469C48.878 3.26508 49.079 3.97096 49.079 4.80234C49.079 5.72783 48.7975 6.51214 48.2346 7.15528C47.6877 7.79841 46.7949 8.19057 45.5564 8.33175V8.49645C46.9397 8.65332 47.9692 9.07685 48.6447 9.76704C49.3203 10.4416 49.6581 11.2965 49.6581 12.3317C49.6581 13.2259 49.457 14.0023 49.0549 14.6612C48.6528 15.32 48.0657 15.8219 47.2936 16.167C46.5215 16.5121 45.5805 16.6847 44.4706 16.6847ZM37.6665 9.62587V14.4023H44.1811C45.1462 14.4023 45.862 14.2141 46.3285 13.8376C46.811 13.4455 47.0523 12.8259 47.0523 11.9788C47.0523 11.1474 46.811 10.5514 46.3285 10.1906C45.862 9.8141 45.1462 9.62587 44.1811 9.62587H37.6665ZM37.6665 3.20234V7.53175H43.7709C44.6878 7.53175 45.3714 7.3592 45.8218 7.0141C46.2722 6.65332 46.4974 6.1043 46.4974 5.36704C46.4974 4.62979 46.2802 4.08861 45.8459 3.74351C45.4116 3.38273 44.7441 3.20234 43.8433 3.20234H37.6665Z" fill="#665A4E"/>
<path d="M58.8254 16.92C57.2169 16.92 55.8496 16.6533 54.7236 16.12C53.5977 15.5867 52.7371 14.818 52.142 13.8141C51.5468 12.7945 51.2492 11.571 51.2492 10.1435V0.919983H53.8309V9.97881C53.8309 11.0455 53.9998 11.9082 54.3376 12.567C54.6915 13.2259 55.2303 13.7121 55.9542 14.0259C56.6941 14.3239 57.6512 14.4729 58.8254 14.4729C60.0157 14.4729 60.9728 14.3239 61.6966 14.0259C62.4365 13.7121 62.9754 13.2259 63.3132 12.567C63.651 11.9082 63.8199 11.0455 63.8199 9.97881V0.919983H66.4257V10.1435C66.4257 11.571 66.1281 12.7945 65.533 13.8141C64.9378 14.818 64.0772 15.5867 62.9513 16.12C61.8253 16.6533 60.45 16.92 58.8254 16.92Z" fill="#665A4E"/>
<path d="M71.3406 16.6847H68.7348V0.919983H77.1313C78.3538 0.919983 79.4074 1.10038 80.2921 1.46116C81.1928 1.82194 81.8765 2.34743 82.3429 3.03763C82.8255 3.72783 83.0668 4.56704 83.0668 5.55528C83.0668 6.43371 82.8738 7.18665 82.4877 7.8141C82.1177 8.44155 81.5708 8.93567 80.847 9.29645C80.1393 9.65724 79.2787 9.869 78.2653 9.93175V10.0965C78.8926 10.2533 79.3752 10.5121 79.713 10.8729C80.0669 11.218 80.3886 11.6416 80.6781 12.1435L83.3804 16.6847H80.3886L77.8069 12.3317C77.5656 11.9082 77.3002 11.571 77.0107 11.32C76.7372 11.0533 76.3914 10.8651 75.9732 10.7553C75.5549 10.6298 75 10.567 74.3083 10.567H71.3406V16.6847ZM71.3406 3.20234V8.6141H77.1072C78.1849 8.6141 78.9972 8.41018 79.5441 8.00234C80.091 7.59449 80.3644 6.89645 80.3644 5.90822C80.3644 4.95135 80.091 4.26116 79.5441 3.83763C78.9972 3.4141 78.1849 3.20234 77.1072 3.20234H71.3406Z" fill="#665A4E"/>
<path d="M87.5515 16.6847H84.9457V0.919983H87.5515V16.6847ZM97.8783 16.6847H85.742V14.4023H97.8783V16.6847ZM97.5164 9.88469H85.742V7.62587H97.5164V9.88469ZM97.8783 3.20234H85.742V0.919983H97.8783V3.20234Z" fill="#665A4E"/>
<path d="M107.942 16.6847H105.361V0.919983H107.942V16.6847ZM114.288 3.20234H98.991V0.919983H114.288V3.20234Z" fill="#665A4E"/>
</svg>
